<mxfile host="Electron" modified="2024-06-19T01:19:12.471Z" agent="Mozilla/5.0 (Macintosh; Intel Mac OS X 10_15_7) AppleWebKit/537.36 (KHTML, like Gecko) draw.io/24.5.3 Chrome/124.0.6367.207 Electron/30.0.6 Safari/537.36" etag="7lPK3H8PfEUaZjqHdhon" version="24.5.3" type="device" pages="3">
  <diagram name="Page-1" id="K5TnG4yaBSOgg7m7bBT9">
    <mxGraphModel dx="1242" dy="817" grid="1" gridSize="10" guides="1" tooltips="1" connect="1" arrows="1" fold="1" page="1" pageScale="1" pageWidth="1100" pageHeight="850" math="0" shadow="0">
      <root>
        <mxCell id="0" />
        <mxCell id="1" parent="0" />
        <mxCell id="mAi5bpOYtt7wcQZXJckd-19" value="R2" style="rounded=1;whiteSpace=wrap;html=1;strokeWidth=4;fontFamily=Helvetica;fontSize=20;perimeterSpacing=1;" parent="1" vertex="1">
          <mxGeometry x="380" y="60" width="80" height="80" as="geometry" />
        </mxCell>
        <mxCell id="mAi5bpOYtt7wcQZXJckd-20" value="R8" style="rounded=1;whiteSpace=wrap;html=1;strokeWidth=4;fontFamily=Helvetica;fontSize=20;perimeterSpacing=1;" parent="1" vertex="1">
          <mxGeometry x="620" y="60" width="80" height="80" as="geometry" />
        </mxCell>
        <mxCell id="mAi5bpOYtt7wcQZXJckd-21" value="R3" style="rounded=1;whiteSpace=wrap;html=1;strokeWidth=4;fontFamily=Helvetica;fontSize=20;perimeterSpacing=1;" parent="1" vertex="1">
          <mxGeometry x="380" y="300" width="80" height="80" as="geometry" />
        </mxCell>
        <mxCell id="mAi5bpOYtt7wcQZXJckd-22" value="R7" style="rounded=1;whiteSpace=wrap;html=1;strokeWidth=4;fontFamily=Helvetica;fontSize=20;perimeterSpacing=1;" parent="1" vertex="1">
          <mxGeometry x="620" y="300" width="80" height="80" as="geometry" />
        </mxCell>
        <mxCell id="mAi5bpOYtt7wcQZXJckd-23" value="R4" style="rounded=1;whiteSpace=wrap;html=1;strokeWidth=4;fontFamily=Helvetica;fontSize=20;perimeterSpacing=1;" parent="1" vertex="1">
          <mxGeometry x="380" y="540" width="80" height="80" as="geometry" />
        </mxCell>
        <mxCell id="mAi5bpOYtt7wcQZXJckd-24" value="R6" style="rounded=1;whiteSpace=wrap;html=1;strokeWidth=4;fontFamily=Helvetica;fontSize=20;perimeterSpacing=1;" parent="1" vertex="1">
          <mxGeometry x="620" y="540" width="80" height="80" as="geometry" />
        </mxCell>
        <mxCell id="mAi5bpOYtt7wcQZXJckd-25" value="R1" style="rounded=1;whiteSpace=wrap;html=1;strokeWidth=4;fontFamily=Helvetica;fontSize=20;perimeterSpacing=1;" parent="1" vertex="1">
          <mxGeometry x="220" y="180" width="80" height="80" as="geometry" />
        </mxCell>
        <mxCell id="mAi5bpOYtt7wcQZXJckd-26" value="R9" style="rounded=1;whiteSpace=wrap;html=1;strokeWidth=4;fontFamily=Helvetica;fontSize=20;perimeterSpacing=1;" parent="1" vertex="1">
          <mxGeometry x="780" y="180" width="80" height="80" as="geometry" />
        </mxCell>
        <mxCell id="mAi5bpOYtt7wcQZXJckd-27" value="R5" style="rounded=1;whiteSpace=wrap;html=1;strokeWidth=4;fontFamily=Helvetica;fontSize=20;perimeterSpacing=1;" parent="1" vertex="1">
          <mxGeometry x="500" y="700" width="80" height="80" as="geometry" />
        </mxCell>
        <mxCell id="mAi5bpOYtt7wcQZXJckd-42" value="1" style="ellipse;whiteSpace=wrap;html=1;aspect=fixed;" parent="1" vertex="1">
          <mxGeometry x="290" y="170" width="20" height="20" as="geometry" />
        </mxCell>
        <mxCell id="mAi5bpOYtt7wcQZXJckd-58" value="0" style="ellipse;whiteSpace=wrap;html=1;aspect=fixed;" parent="1" vertex="1">
          <mxGeometry x="370" y="130" width="20" height="20" as="geometry" />
        </mxCell>
        <mxCell id="mAi5bpOYtt7wcQZXJckd-59" value="1" style="ellipse;whiteSpace=wrap;html=1;aspect=fixed;" parent="1" vertex="1">
          <mxGeometry x="410" y="130" width="20" height="20" as="geometry" />
        </mxCell>
        <mxCell id="mAi5bpOYtt7wcQZXJckd-60" value="0" style="ellipse;whiteSpace=wrap;html=1;aspect=fixed;" parent="1" vertex="1">
          <mxGeometry x="410" y="290" width="20" height="20" as="geometry" />
        </mxCell>
        <mxCell id="mAi5bpOYtt7wcQZXJckd-61" value="3" style="ellipse;whiteSpace=wrap;html=1;aspect=fixed;" parent="1" vertex="1">
          <mxGeometry x="370" y="290" width="20" height="20" as="geometry" />
        </mxCell>
        <mxCell id="mAi5bpOYtt7wcQZXJckd-62" value="2" style="ellipse;whiteSpace=wrap;html=1;aspect=fixed;" parent="1" vertex="1">
          <mxGeometry x="450" y="330" width="20" height="20" as="geometry" />
        </mxCell>
        <mxCell id="mAi5bpOYtt7wcQZXJckd-63" value="1" style="ellipse;whiteSpace=wrap;html=1;aspect=fixed;" parent="1" vertex="1">
          <mxGeometry x="410" y="370" width="20" height="20" as="geometry" />
        </mxCell>
        <mxCell id="mAi5bpOYtt7wcQZXJckd-64" value="0" style="ellipse;whiteSpace=wrap;html=1;aspect=fixed;" parent="1" vertex="1">
          <mxGeometry x="410" y="530" width="20" height="20" as="geometry" />
        </mxCell>
        <mxCell id="mAi5bpOYtt7wcQZXJckd-65" value="1" style="ellipse;whiteSpace=wrap;html=1;aspect=fixed;" parent="1" vertex="1">
          <mxGeometry x="650" y="530" width="20" height="20" as="geometry" />
        </mxCell>
        <mxCell id="mAi5bpOYtt7wcQZXJckd-66" value="0" style="ellipse;whiteSpace=wrap;html=1;aspect=fixed;" parent="1" vertex="1">
          <mxGeometry x="650" y="370" width="20" height="20" as="geometry" />
        </mxCell>
        <mxCell id="mAi5bpOYtt7wcQZXJckd-67" value="1" style="ellipse;whiteSpace=wrap;html=1;aspect=fixed;" parent="1" vertex="1">
          <mxGeometry x="650" y="290" width="20" height="20" as="geometry" />
        </mxCell>
        <mxCell id="mAi5bpOYtt7wcQZXJckd-68" value="0" style="ellipse;whiteSpace=wrap;html=1;aspect=fixed;" parent="1" vertex="1">
          <mxGeometry x="650" y="130" width="20" height="20" as="geometry" />
        </mxCell>
        <mxCell id="mAi5bpOYtt7wcQZXJckd-69" value="3" style="ellipse;whiteSpace=wrap;html=1;aspect=fixed;" parent="1" vertex="1">
          <mxGeometry x="610" y="90" width="20" height="20" as="geometry" />
        </mxCell>
        <mxCell id="mAi5bpOYtt7wcQZXJckd-70" value="2" style="ellipse;whiteSpace=wrap;html=1;aspect=fixed;" parent="1" vertex="1">
          <mxGeometry x="450" y="90" width="20" height="20" as="geometry" />
        </mxCell>
        <mxCell id="mAi5bpOYtt7wcQZXJckd-71" value="3" style="ellipse;whiteSpace=wrap;html=1;aspect=fixed;" parent="1" vertex="1">
          <mxGeometry x="770" y="250" width="20" height="20" as="geometry" />
        </mxCell>
        <mxCell id="mAi5bpOYtt7wcQZXJckd-72" value="0" style="ellipse;whiteSpace=wrap;html=1;aspect=fixed;" parent="1" vertex="1">
          <mxGeometry x="770" y="170" width="20" height="20" as="geometry" />
        </mxCell>
        <mxCell id="mAi5bpOYtt7wcQZXJckd-73" value="1" style="ellipse;whiteSpace=wrap;html=1;aspect=fixed;" parent="1" vertex="1">
          <mxGeometry x="690" y="130" width="20" height="20" as="geometry" />
        </mxCell>
        <mxCell id="mAi5bpOYtt7wcQZXJckd-74" value="2" style="ellipse;whiteSpace=wrap;html=1;aspect=fixed;" parent="1" vertex="1">
          <mxGeometry x="290" y="250" width="20" height="20" as="geometry" />
        </mxCell>
        <mxCell id="mAi5bpOYtt7wcQZXJckd-75" value="1" style="ellipse;whiteSpace=wrap;html=1;aspect=fixed;" parent="1" vertex="1">
          <mxGeometry x="450" y="610" width="20" height="20" as="geometry" />
        </mxCell>
        <mxCell id="mAi5bpOYtt7wcQZXJckd-76" value="3" style="ellipse;whiteSpace=wrap;html=1;aspect=fixed;" parent="1" vertex="1">
          <mxGeometry x="450" y="570" width="20" height="20" as="geometry" />
        </mxCell>
        <mxCell id="mAi5bpOYtt7wcQZXJckd-77" value="2" style="ellipse;whiteSpace=wrap;html=1;aspect=fixed;" parent="1" vertex="1">
          <mxGeometry x="610" y="570" width="20" height="20" as="geometry" />
        </mxCell>
        <mxCell id="mAi5bpOYtt7wcQZXJckd-78" value="0" style="ellipse;whiteSpace=wrap;html=1;aspect=fixed;" parent="1" vertex="1">
          <mxGeometry x="610" y="610" width="20" height="20" as="geometry" />
        </mxCell>
        <mxCell id="mAi5bpOYtt7wcQZXJckd-79" value="0" style="ellipse;whiteSpace=wrap;html=1;aspect=fixed;" parent="1" vertex="1">
          <mxGeometry x="490" y="690" width="20" height="20" as="geometry" />
        </mxCell>
        <mxCell id="mAi5bpOYtt7wcQZXJckd-80" value="1" style="ellipse;whiteSpace=wrap;html=1;aspect=fixed;" parent="1" vertex="1">
          <mxGeometry x="570" y="690" width="20" height="20" as="geometry" />
        </mxCell>
        <mxCell id="mAi5bpOYtt7wcQZXJckd-81" value="3" style="ellipse;whiteSpace=wrap;html=1;aspect=fixed;" parent="1" vertex="1">
          <mxGeometry x="610" y="330" width="20" height="20" as="geometry" />
        </mxCell>
        <mxCell id="mAi5bpOYtt7wcQZXJckd-82" value="2" style="ellipse;whiteSpace=wrap;html=1;aspect=fixed;" parent="1" vertex="1">
          <mxGeometry x="690" y="290" width="20" height="20" as="geometry" />
        </mxCell>
        <mxCell id="mAi5bpOYtt7wcQZXJckd-83" value="0" style="ellipse;whiteSpace=wrap;html=1;aspect=fixed;" parent="1" vertex="1">
          <mxGeometry x="290" y="210" width="20" height="20" as="geometry" />
        </mxCell>
        <mxCell id="mAi5bpOYtt7wcQZXJckd-84" value="1" style="ellipse;whiteSpace=wrap;html=1;aspect=fixed;" parent="1" vertex="1">
          <mxGeometry x="770" y="210" width="20" height="20" as="geometry" />
        </mxCell>
        <mxCell id="mAi5bpOYtt7wcQZXJckd-85" value="" style="endArrow=none;html=1;rounded=0;strokeWidth=2;" parent="1" source="mAi5bpOYtt7wcQZXJckd-42" target="mAi5bpOYtt7wcQZXJckd-58" edge="1">
          <mxGeometry width="50" height="50" relative="1" as="geometry">
            <mxPoint x="380" y="300" as="sourcePoint" />
            <mxPoint x="430" y="250" as="targetPoint" />
          </mxGeometry>
        </mxCell>
        <mxCell id="mAi5bpOYtt7wcQZXJckd-86" value="" style="endArrow=none;html=1;rounded=0;exitX=0.5;exitY=0;exitDx=0;exitDy=0;strokeWidth=2;" parent="1" source="mAi5bpOYtt7wcQZXJckd-60" target="mAi5bpOYtt7wcQZXJckd-59" edge="1">
          <mxGeometry width="50" height="50" relative="1" as="geometry">
            <mxPoint x="380" y="300" as="sourcePoint" />
            <mxPoint x="430" y="250" as="targetPoint" />
          </mxGeometry>
        </mxCell>
        <mxCell id="mAi5bpOYtt7wcQZXJckd-87" value="" style="endArrow=none;html=1;rounded=0;strokeWidth=2;" parent="1" source="mAi5bpOYtt7wcQZXJckd-64" target="mAi5bpOYtt7wcQZXJckd-63" edge="1">
          <mxGeometry width="50" height="50" relative="1" as="geometry">
            <mxPoint x="380" y="560" as="sourcePoint" />
            <mxPoint x="430" y="510" as="targetPoint" />
          </mxGeometry>
        </mxCell>
        <mxCell id="mAi5bpOYtt7wcQZXJckd-88" value="" style="endArrow=none;html=1;rounded=0;strokeWidth=2;" parent="1" source="mAi5bpOYtt7wcQZXJckd-79" target="mAi5bpOYtt7wcQZXJckd-75" edge="1">
          <mxGeometry width="50" height="50" relative="1" as="geometry">
            <mxPoint x="430" y="680" as="sourcePoint" />
            <mxPoint x="480" y="630" as="targetPoint" />
          </mxGeometry>
        </mxCell>
        <mxCell id="mAi5bpOYtt7wcQZXJckd-89" value="" style="endArrow=none;html=1;rounded=0;strokeWidth=2;" parent="1" source="mAi5bpOYtt7wcQZXJckd-76" target="mAi5bpOYtt7wcQZXJckd-77" edge="1">
          <mxGeometry width="50" height="50" relative="1" as="geometry">
            <mxPoint x="430" y="680" as="sourcePoint" />
            <mxPoint x="480" y="630" as="targetPoint" />
          </mxGeometry>
        </mxCell>
        <mxCell id="mAi5bpOYtt7wcQZXJckd-90" value="" style="endArrow=none;html=1;rounded=0;strokeWidth=2;" parent="1" source="mAi5bpOYtt7wcQZXJckd-80" target="mAi5bpOYtt7wcQZXJckd-78" edge="1">
          <mxGeometry width="50" height="50" relative="1" as="geometry">
            <mxPoint x="430" y="680" as="sourcePoint" />
            <mxPoint x="480" y="630" as="targetPoint" />
          </mxGeometry>
        </mxCell>
        <mxCell id="mAi5bpOYtt7wcQZXJckd-91" value="" style="endArrow=none;html=1;rounded=0;strokeWidth=2;" parent="1" source="mAi5bpOYtt7wcQZXJckd-65" target="mAi5bpOYtt7wcQZXJckd-66" edge="1">
          <mxGeometry width="50" height="50" relative="1" as="geometry">
            <mxPoint x="670" y="540" as="sourcePoint" />
            <mxPoint x="720" y="490" as="targetPoint" />
          </mxGeometry>
        </mxCell>
        <mxCell id="mAi5bpOYtt7wcQZXJckd-92" value="" style="endArrow=none;html=1;rounded=0;strokeWidth=2;" parent="1" source="mAi5bpOYtt7wcQZXJckd-62" target="mAi5bpOYtt7wcQZXJckd-81" edge="1">
          <mxGeometry width="50" height="50" relative="1" as="geometry">
            <mxPoint x="620" y="440" as="sourcePoint" />
            <mxPoint x="670" y="390" as="targetPoint" />
          </mxGeometry>
        </mxCell>
        <mxCell id="mAi5bpOYtt7wcQZXJckd-93" value="" style="endArrow=none;html=1;rounded=0;" parent="1" source="mAi5bpOYtt7wcQZXJckd-82" target="mAi5bpOYtt7wcQZXJckd-71" edge="1">
          <mxGeometry width="50" height="50" relative="1" as="geometry">
            <mxPoint x="620" y="340" as="sourcePoint" />
            <mxPoint x="670" y="290" as="targetPoint" />
          </mxGeometry>
        </mxCell>
        <mxCell id="mAi5bpOYtt7wcQZXJckd-94" value="" style="endArrow=none;html=1;rounded=0;entryX=0;entryY=0.5;entryDx=0;entryDy=0;strokeWidth=2;" parent="1" source="mAi5bpOYtt7wcQZXJckd-73" target="mAi5bpOYtt7wcQZXJckd-72" edge="1">
          <mxGeometry width="50" height="50" relative="1" as="geometry">
            <mxPoint x="620" y="230" as="sourcePoint" />
            <mxPoint x="670" y="180" as="targetPoint" />
          </mxGeometry>
        </mxCell>
        <mxCell id="mAi5bpOYtt7wcQZXJckd-95" value="" style="endArrow=none;html=1;rounded=0;strokeWidth=2;" parent="1" source="mAi5bpOYtt7wcQZXJckd-67" target="mAi5bpOYtt7wcQZXJckd-68" edge="1">
          <mxGeometry width="50" height="50" relative="1" as="geometry">
            <mxPoint x="620" y="220" as="sourcePoint" />
            <mxPoint x="670" y="170" as="targetPoint" />
          </mxGeometry>
        </mxCell>
        <mxCell id="mAi5bpOYtt7wcQZXJckd-96" value="" style="endArrow=none;html=1;rounded=0;strokeWidth=2;" parent="1" source="mAi5bpOYtt7wcQZXJckd-70" target="mAi5bpOYtt7wcQZXJckd-69" edge="1">
          <mxGeometry width="50" height="50" relative="1" as="geometry">
            <mxPoint x="530" y="220" as="sourcePoint" />
            <mxPoint x="580" y="170" as="targetPoint" />
          </mxGeometry>
        </mxCell>
        <mxCell id="mAi5bpOYtt7wcQZXJckd-97" value="" style="endArrow=none;html=1;rounded=0;" parent="1" source="mAi5bpOYtt7wcQZXJckd-74" target="mAi5bpOYtt7wcQZXJckd-61" edge="1">
          <mxGeometry width="50" height="50" relative="1" as="geometry">
            <mxPoint x="460" y="220" as="sourcePoint" />
            <mxPoint x="510" y="170" as="targetPoint" />
          </mxGeometry>
        </mxCell>
        <mxCell id="mAi5bpOYtt7wcQZXJckd-98" value="" style="endArrow=none;html=1;rounded=0;strokeWidth=2;" parent="1" source="mAi5bpOYtt7wcQZXJckd-83" target="mAi5bpOYtt7wcQZXJckd-84" edge="1">
          <mxGeometry width="50" height="50" relative="1" as="geometry">
            <mxPoint x="380" y="250" as="sourcePoint" />
            <mxPoint x="430" y="200" as="targetPoint" />
          </mxGeometry>
        </mxCell>
        <mxCell id="mAi5bpOYtt7wcQZXJckd-99" value="3" style="ellipse;whiteSpace=wrap;html=1;aspect=fixed;" parent="1" vertex="1">
          <mxGeometry x="250" y="250" width="20" height="20" as="geometry" />
        </mxCell>
        <mxCell id="mAi5bpOYtt7wcQZXJckd-100" value="2" style="ellipse;whiteSpace=wrap;html=1;aspect=fixed;" parent="1" vertex="1">
          <mxGeometry x="370" y="570" width="20" height="20" as="geometry" />
        </mxCell>
        <mxCell id="mAi5bpOYtt7wcQZXJckd-101" value="2" style="ellipse;whiteSpace=wrap;html=1;aspect=fixed;" parent="1" vertex="1">
          <mxGeometry x="810" y="250" width="20" height="20" as="geometry" />
        </mxCell>
        <mxCell id="mAi5bpOYtt7wcQZXJckd-102" value="3" style="ellipse;whiteSpace=wrap;html=1;aspect=fixed;" parent="1" vertex="1">
          <mxGeometry x="690" y="570" width="20" height="20" as="geometry" />
        </mxCell>
        <mxCell id="mAi5bpOYtt7wcQZXJckd-103" value="" style="endArrow=none;html=1;rounded=0;edgeStyle=orthogonalEdgeStyle;strokeWidth=2;" parent="1" source="mAi5bpOYtt7wcQZXJckd-100" target="mAi5bpOYtt7wcQZXJckd-99" edge="1">
          <mxGeometry width="50" height="50" relative="1" as="geometry">
            <mxPoint x="490" y="410" as="sourcePoint" />
            <mxPoint x="540" y="360" as="targetPoint" />
          </mxGeometry>
        </mxCell>
        <mxCell id="mAi5bpOYtt7wcQZXJckd-104" value="" style="endArrow=none;html=1;rounded=0;edgeStyle=orthogonalEdgeStyle;strokeWidth=2;" parent="1" source="mAi5bpOYtt7wcQZXJckd-102" target="mAi5bpOYtt7wcQZXJckd-101" edge="1">
          <mxGeometry width="50" height="50" relative="1" as="geometry">
            <mxPoint x="490" y="410" as="sourcePoint" />
            <mxPoint x="540" y="360" as="targetPoint" />
          </mxGeometry>
        </mxCell>
        <mxCell id="mAi5bpOYtt7wcQZXJckd-105" value="3" style="ellipse;whiteSpace=wrap;html=1;aspect=fixed;" parent="1" vertex="1">
          <mxGeometry x="370" y="90" width="20" height="20" as="geometry" />
        </mxCell>
        <mxCell id="mAi5bpOYtt7wcQZXJckd-106" value="2" style="ellipse;whiteSpace=wrap;html=1;aspect=fixed;" parent="1" vertex="1">
          <mxGeometry x="690" y="90" width="20" height="20" as="geometry" />
        </mxCell>
        <mxCell id="mAi5bpOYtt7wcQZXJckd-108" value="2" style="ellipse;whiteSpace=wrap;html=1;aspect=fixed;" parent="1" vertex="1">
          <mxGeometry x="490" y="750" width="20" height="20" as="geometry" />
        </mxCell>
        <mxCell id="mAi5bpOYtt7wcQZXJckd-109" value="3" style="ellipse;whiteSpace=wrap;html=1;aspect=fixed;" parent="1" vertex="1">
          <mxGeometry x="570" y="750" width="20" height="20" as="geometry" />
        </mxCell>
        <mxCell id="mAi5bpOYtt7wcQZXJckd-110" value="" style="endArrow=none;html=1;rounded=0;edgeStyle=orthogonalEdgeStyle;strokeWidth=2;" parent="1" source="mAi5bpOYtt7wcQZXJckd-108" target="mAi5bpOYtt7wcQZXJckd-105" edge="1">
          <mxGeometry width="50" height="50" relative="1" as="geometry">
            <mxPoint x="460" y="740" as="sourcePoint" />
            <mxPoint x="360" y="100" as="targetPoint" />
            <Array as="points">
              <mxPoint x="160" y="760" />
              <mxPoint x="160" y="100" />
            </Array>
          </mxGeometry>
        </mxCell>
        <mxCell id="mAi5bpOYtt7wcQZXJckd-111" value="" style="endArrow=none;html=1;rounded=0;edgeStyle=orthogonalEdgeStyle;strokeWidth=2;" parent="1" source="mAi5bpOYtt7wcQZXJckd-109" target="mAi5bpOYtt7wcQZXJckd-106" edge="1">
          <mxGeometry width="50" height="50" relative="1" as="geometry">
            <mxPoint x="490" y="270" as="sourcePoint" />
            <mxPoint x="540" y="220" as="targetPoint" />
            <Array as="points">
              <mxPoint x="920" y="760" />
              <mxPoint x="920" y="100" />
            </Array>
          </mxGeometry>
        </mxCell>
      </root>
    </mxGraphModel>
  </diagram>
  <diagram id="TZfqGonLEx3rINjEcH3S" name="Page-2">
    <mxGraphModel dx="1242" dy="817" grid="1" gridSize="10" guides="1" tooltips="1" connect="1" arrows="1" fold="1" page="1" pageScale="1" pageWidth="1100" pageHeight="850" math="0" shadow="0">
      <root>
        <mxCell id="0" />
        <mxCell id="1" parent="0" />
        <mxCell id="XlkFAfoqpxD81n8Z_oae-1" value="R1" style="rounded=1;whiteSpace=wrap;html=1;strokeWidth=5;fontFamily=Helvetica;fontSize=20;perimeterSpacing=1;fillColor=#D4E1F5;" vertex="1" parent="1">
          <mxGeometry x="40" y="240" width="80" height="80" as="geometry" />
        </mxCell>
        <mxCell id="XlkFAfoqpxD81n8Z_oae-2" value="1" style="ellipse;whiteSpace=wrap;html=1;aspect=fixed;" vertex="1" parent="1">
          <mxGeometry x="110" y="250" width="20" height="20" as="geometry" />
        </mxCell>
        <mxCell id="XlkFAfoqpxD81n8Z_oae-6" value="R9" style="rounded=1;whiteSpace=wrap;html=1;strokeWidth=5;fontFamily=Helvetica;fontSize=20;perimeterSpacing=1;fillColor=#D4E1F5;" vertex="1" parent="1">
          <mxGeometry x="40" y="480" width="80" height="80" as="geometry" />
        </mxCell>
        <mxCell id="XlkFAfoqpxD81n8Z_oae-7" value="R2" style="rounded=1;whiteSpace=wrap;html=1;strokeWidth=5;fontFamily=Helvetica;fontSize=20;perimeterSpacing=1;fillColor=#D4E1F5;" vertex="1" parent="1">
          <mxGeometry x="280" y="240" width="80" height="80" as="geometry" />
        </mxCell>
        <mxCell id="XlkFAfoqpxD81n8Z_oae-8" value="R8" style="rounded=1;whiteSpace=wrap;html=1;strokeWidth=5;fontFamily=Helvetica;fontSize=20;perimeterSpacing=1;fillColor=#D4E1F5;" vertex="1" parent="1">
          <mxGeometry x="280" y="480" width="80" height="80" as="geometry" />
        </mxCell>
        <mxCell id="XlkFAfoqpxD81n8Z_oae-9" value="R3" style="rounded=1;whiteSpace=wrap;html=1;strokeWidth=5;fontFamily=Helvetica;fontSize=20;perimeterSpacing=1;fillColor=#D4E1F5;" vertex="1" parent="1">
          <mxGeometry x="520" y="240" width="80" height="80" as="geometry" />
        </mxCell>
        <mxCell id="XlkFAfoqpxD81n8Z_oae-10" value="R7" style="rounded=1;whiteSpace=wrap;html=1;strokeWidth=5;fontFamily=Helvetica;fontSize=20;perimeterSpacing=1;fillColor=#D4E1F5;" vertex="1" parent="1">
          <mxGeometry x="520" y="480" width="80" height="80" as="geometry" />
        </mxCell>
        <mxCell id="XlkFAfoqpxD81n8Z_oae-11" value="R4" style="rounded=1;whiteSpace=wrap;html=1;strokeWidth=5;fontFamily=Helvetica;fontSize=20;perimeterSpacing=1;fillColor=#D4E1F5;" vertex="1" parent="1">
          <mxGeometry x="760" y="240" width="80" height="80" as="geometry" />
        </mxCell>
        <mxCell id="XlkFAfoqpxD81n8Z_oae-12" value="R6" style="rounded=1;whiteSpace=wrap;html=1;strokeWidth=5;fontFamily=Helvetica;fontSize=20;perimeterSpacing=1;fillColor=#D4E1F5;" vertex="1" parent="1">
          <mxGeometry x="760" y="480" width="80" height="80" as="geometry" />
        </mxCell>
        <mxCell id="XlkFAfoqpxD81n8Z_oae-13" value="R5" style="rounded=1;whiteSpace=wrap;html=1;strokeWidth=5;fontFamily=Helvetica;fontSize=20;perimeterSpacing=1;fillColor=#D4E1F5;" vertex="1" parent="1">
          <mxGeometry x="1000" y="360" width="80" height="80" as="geometry" />
        </mxCell>
        <mxCell id="XlkFAfoqpxD81n8Z_oae-14" value="0" style="ellipse;whiteSpace=wrap;html=1;aspect=fixed;" vertex="1" parent="1">
          <mxGeometry x="270" y="250" width="20" height="20" as="geometry" />
        </mxCell>
        <mxCell id="XlkFAfoqpxD81n8Z_oae-15" value="0" style="ellipse;whiteSpace=wrap;html=1;aspect=fixed;" vertex="1" parent="1">
          <mxGeometry x="110" y="530" width="20" height="20" as="geometry" />
        </mxCell>
        <mxCell id="XlkFAfoqpxD81n8Z_oae-16" value="1" style="ellipse;whiteSpace=wrap;html=1;aspect=fixed;" vertex="1" parent="1">
          <mxGeometry x="270" y="530" width="20" height="20" as="geometry" />
        </mxCell>
        <mxCell id="XlkFAfoqpxD81n8Z_oae-17" value="1" style="ellipse;whiteSpace=wrap;html=1;aspect=fixed;" vertex="1" parent="1">
          <mxGeometry x="350" y="250" width="20" height="20" as="geometry" />
        </mxCell>
        <mxCell id="XlkFAfoqpxD81n8Z_oae-18" value="0" style="ellipse;whiteSpace=wrap;html=1;aspect=fixed;" vertex="1" parent="1">
          <mxGeometry x="510" y="250" width="20" height="20" as="geometry" />
        </mxCell>
        <mxCell id="XlkFAfoqpxD81n8Z_oae-19" value="0" style="ellipse;whiteSpace=wrap;html=1;aspect=fixed;" vertex="1" parent="1">
          <mxGeometry x="350" y="530" width="20" height="20" as="geometry" />
        </mxCell>
        <mxCell id="XlkFAfoqpxD81n8Z_oae-20" value="1" style="ellipse;whiteSpace=wrap;html=1;aspect=fixed;" vertex="1" parent="1">
          <mxGeometry x="510" y="530" width="20" height="20" as="geometry" />
        </mxCell>
        <mxCell id="XlkFAfoqpxD81n8Z_oae-21" value="1" style="ellipse;whiteSpace=wrap;html=1;aspect=fixed;" vertex="1" parent="1">
          <mxGeometry x="590" y="250" width="20" height="20" as="geometry" />
        </mxCell>
        <mxCell id="XlkFAfoqpxD81n8Z_oae-22" value="0" style="ellipse;whiteSpace=wrap;html=1;aspect=fixed;" vertex="1" parent="1">
          <mxGeometry x="750" y="250" width="20" height="20" as="geometry" />
        </mxCell>
        <mxCell id="XlkFAfoqpxD81n8Z_oae-23" value="0" style="ellipse;whiteSpace=wrap;html=1;aspect=fixed;" vertex="1" parent="1">
          <mxGeometry x="590" y="530" width="20" height="20" as="geometry" />
        </mxCell>
        <mxCell id="XlkFAfoqpxD81n8Z_oae-24" value="1" style="ellipse;whiteSpace=wrap;html=1;aspect=fixed;" vertex="1" parent="1">
          <mxGeometry x="750" y="530" width="20" height="20" as="geometry" />
        </mxCell>
        <mxCell id="XlkFAfoqpxD81n8Z_oae-25" value="1" style="ellipse;whiteSpace=wrap;html=1;aspect=fixed;" vertex="1" parent="1">
          <mxGeometry x="830" y="270" width="20" height="20" as="geometry" />
        </mxCell>
        <mxCell id="XlkFAfoqpxD81n8Z_oae-26" value="0" style="ellipse;whiteSpace=wrap;html=1;aspect=fixed;" vertex="1" parent="1">
          <mxGeometry x="830" y="510" width="20" height="20" as="geometry" />
        </mxCell>
        <mxCell id="XlkFAfoqpxD81n8Z_oae-27" value="0" style="ellipse;whiteSpace=wrap;html=1;aspect=fixed;" vertex="1" parent="1">
          <mxGeometry x="990" y="370" width="20" height="20" as="geometry" />
        </mxCell>
        <mxCell id="XlkFAfoqpxD81n8Z_oae-28" value="1" style="ellipse;whiteSpace=wrap;html=1;aspect=fixed;" vertex="1" parent="1">
          <mxGeometry x="990" y="410" width="20" height="20" as="geometry" />
        </mxCell>
        <mxCell id="XlkFAfoqpxD81n8Z_oae-29" value="1" style="ellipse;whiteSpace=wrap;html=1;aspect=fixed;" vertex="1" parent="1">
          <mxGeometry x="50" y="550" width="20" height="20" as="geometry" />
        </mxCell>
        <mxCell id="XlkFAfoqpxD81n8Z_oae-30" value="0" style="ellipse;whiteSpace=wrap;html=1;aspect=fixed;" vertex="1" parent="1">
          <mxGeometry x="50" y="230" width="20" height="20" as="geometry" />
        </mxCell>
        <mxCell id="hTBzwgSSyY7SnHsEA0Em-1" value="3" style="ellipse;whiteSpace=wrap;html=1;aspect=fixed;" vertex="1" parent="1">
          <mxGeometry x="350" y="290" width="20" height="20" as="geometry" />
        </mxCell>
        <mxCell id="hTBzwgSSyY7SnHsEA0Em-2" value="2" style="ellipse;whiteSpace=wrap;html=1;aspect=fixed;" vertex="1" parent="1">
          <mxGeometry x="350" y="490" width="20" height="20" as="geometry" />
        </mxCell>
        <mxCell id="hTBzwgSSyY7SnHsEA0Em-3" value="2" style="ellipse;whiteSpace=wrap;html=1;aspect=fixed;" vertex="1" parent="1">
          <mxGeometry x="550" y="310" width="20" height="20" as="geometry" />
        </mxCell>
        <mxCell id="hTBzwgSSyY7SnHsEA0Em-4" value="3" style="ellipse;whiteSpace=wrap;html=1;aspect=fixed;" vertex="1" parent="1">
          <mxGeometry x="550" y="470" width="20" height="20" as="geometry" />
        </mxCell>
        <mxCell id="hTBzwgSSyY7SnHsEA0Em-5" value="2" style="ellipse;whiteSpace=wrap;html=1;aspect=fixed;" vertex="1" parent="1">
          <mxGeometry x="790" y="230" width="20" height="20" as="geometry" />
        </mxCell>
        <mxCell id="hTBzwgSSyY7SnHsEA0Em-6" value="3" style="ellipse;whiteSpace=wrap;html=1;aspect=fixed;" vertex="1" parent="1">
          <mxGeometry x="790" y="550" width="20" height="20" as="geometry" />
        </mxCell>
        <mxCell id="hTBzwgSSyY7SnHsEA0Em-7" value="2" style="ellipse;whiteSpace=wrap;html=1;aspect=fixed;" vertex="1" parent="1">
          <mxGeometry x="110" y="290" width="20" height="20" as="geometry" />
        </mxCell>
        <mxCell id="hTBzwgSSyY7SnHsEA0Em-8" value="3" style="ellipse;whiteSpace=wrap;html=1;aspect=fixed;" vertex="1" parent="1">
          <mxGeometry x="110" y="490" width="20" height="20" as="geometry" />
        </mxCell>
        <mxCell id="hTBzwgSSyY7SnHsEA0Em-9" value="2" style="ellipse;whiteSpace=wrap;html=1;aspect=fixed;" vertex="1" parent="1">
          <mxGeometry x="270" y="290" width="20" height="20" as="geometry" />
        </mxCell>
        <mxCell id="hTBzwgSSyY7SnHsEA0Em-10" value="3" style="ellipse;whiteSpace=wrap;html=1;aspect=fixed;" vertex="1" parent="1">
          <mxGeometry x="270" y="490" width="20" height="20" as="geometry" />
        </mxCell>
        <mxCell id="hTBzwgSSyY7SnHsEA0Em-15" value="3" style="ellipse;whiteSpace=wrap;html=1;aspect=fixed;" vertex="1" parent="1">
          <mxGeometry x="510" y="290" width="20" height="20" as="geometry" />
        </mxCell>
        <mxCell id="hTBzwgSSyY7SnHsEA0Em-16" value="2" style="ellipse;whiteSpace=wrap;html=1;aspect=fixed;" vertex="1" parent="1">
          <mxGeometry x="510" y="490" width="20" height="20" as="geometry" />
        </mxCell>
        <mxCell id="XlkFAfoqpxD81n8Z_oae-4" value="2" style="ellipse;whiteSpace=wrap;html=1;aspect=fixed;" vertex="1" parent="1">
          <mxGeometry x="1030" y="430" width="20" height="20" as="geometry" />
        </mxCell>
        <mxCell id="hTBzwgSSyY7SnHsEA0Em-18" value="3" style="ellipse;whiteSpace=wrap;html=1;aspect=fixed;" vertex="1" parent="1">
          <mxGeometry x="1030" y="350" width="20" height="20" as="geometry" />
        </mxCell>
        <mxCell id="hTBzwgSSyY7SnHsEA0Em-19" value="3" style="ellipse;whiteSpace=wrap;html=1;aspect=fixed;" vertex="1" parent="1">
          <mxGeometry x="90" y="230" width="20" height="20" as="geometry" />
        </mxCell>
        <mxCell id="hTBzwgSSyY7SnHsEA0Em-20" value="2" style="ellipse;whiteSpace=wrap;html=1;aspect=fixed;" vertex="1" parent="1">
          <mxGeometry x="90" y="550" width="20" height="20" as="geometry" />
        </mxCell>
        <mxCell id="hTBzwgSSyY7SnHsEA0Em-21" value="3" style="ellipse;whiteSpace=wrap;html=1;aspect=fixed;" vertex="1" parent="1">
          <mxGeometry x="790" y="310" width="20" height="20" as="geometry" />
        </mxCell>
        <mxCell id="hTBzwgSSyY7SnHsEA0Em-22" value="2" style="ellipse;whiteSpace=wrap;html=1;aspect=fixed;" vertex="1" parent="1">
          <mxGeometry x="790" y="470" width="20" height="20" as="geometry" />
        </mxCell>
        <mxCell id="-cBxk7fLiJrXRpnCx0br-1" value="" style="endArrow=none;html=1;rounded=0;strokeWidth=3;strokeColor=#0066CC;" edge="1" parent="1" source="hTBzwgSSyY7SnHsEA0Em-10" target="hTBzwgSSyY7SnHsEA0Em-7">
          <mxGeometry width="50" height="50" relative="1" as="geometry">
            <mxPoint x="420" y="370" as="sourcePoint" />
            <mxPoint x="420" y="230" as="targetPoint" />
          </mxGeometry>
        </mxCell>
        <mxCell id="-cBxk7fLiJrXRpnCx0br-2" value="" style="endArrow=none;html=1;rounded=0;strokeWidth=3;strokeColor=#0066CC;" edge="1" parent="1" source="XlkFAfoqpxD81n8Z_oae-14" target="XlkFAfoqpxD81n8Z_oae-2">
          <mxGeometry width="50" height="50" relative="1" as="geometry">
            <mxPoint x="180" y="200" as="sourcePoint" />
            <mxPoint x="430" y="220" as="targetPoint" />
          </mxGeometry>
        </mxCell>
        <mxCell id="-cBxk7fLiJrXRpnCx0br-3" value="" style="endArrow=none;html=1;rounded=0;strokeWidth=3;strokeColor=#0066CC;" edge="1" parent="1" source="hTBzwgSSyY7SnHsEA0Em-9" target="hTBzwgSSyY7SnHsEA0Em-8">
          <mxGeometry width="50" height="50" relative="1" as="geometry">
            <mxPoint x="270" y="390" as="sourcePoint" />
            <mxPoint x="200" y="430" as="targetPoint" />
          </mxGeometry>
        </mxCell>
        <mxCell id="-cBxk7fLiJrXRpnCx0br-4" value="" style="endArrow=none;html=1;rounded=0;strokeWidth=3;strokeColor=#0066CC;" edge="1" parent="1" source="XlkFAfoqpxD81n8Z_oae-15" target="XlkFAfoqpxD81n8Z_oae-16">
          <mxGeometry width="50" height="50" relative="1" as="geometry">
            <mxPoint x="450" y="420" as="sourcePoint" />
            <mxPoint x="450" y="280" as="targetPoint" />
          </mxGeometry>
        </mxCell>
        <mxCell id="-cBxk7fLiJrXRpnCx0br-5" value="" style="endArrow=none;html=1;rounded=0;strokeWidth=5;strokeColor=#004C99;" edge="1" parent="1" source="XlkFAfoqpxD81n8Z_oae-18" target="XlkFAfoqpxD81n8Z_oae-17">
          <mxGeometry width="50" height="50" relative="1" as="geometry">
            <mxPoint x="460" y="390" as="sourcePoint" />
            <mxPoint x="460" y="250" as="targetPoint" />
          </mxGeometry>
        </mxCell>
        <mxCell id="-cBxk7fLiJrXRpnCx0br-6" value="" style="endArrow=none;html=1;rounded=0;strokeWidth=5;strokeColor=#004C99;" edge="1" parent="1" source="hTBzwgSSyY7SnHsEA0Em-16" target="hTBzwgSSyY7SnHsEA0Em-1">
          <mxGeometry width="50" height="50" relative="1" as="geometry">
            <mxPoint x="470" y="420" as="sourcePoint" />
            <mxPoint x="470" y="280" as="targetPoint" />
          </mxGeometry>
        </mxCell>
        <mxCell id="-cBxk7fLiJrXRpnCx0br-7" value="" style="endArrow=none;html=1;rounded=0;strokeWidth=5;strokeColor=#004C99;" edge="1" parent="1" source="hTBzwgSSyY7SnHsEA0Em-2" target="hTBzwgSSyY7SnHsEA0Em-15">
          <mxGeometry width="50" height="50" relative="1" as="geometry">
            <mxPoint x="480" y="430" as="sourcePoint" />
            <mxPoint x="480" y="290" as="targetPoint" />
          </mxGeometry>
        </mxCell>
        <mxCell id="-cBxk7fLiJrXRpnCx0br-8" value="" style="endArrow=none;html=1;rounded=0;strokeWidth=5;strokeColor=#004C99;" edge="1" parent="1" source="hTBzwgSSyY7SnHsEA0Em-4" target="hTBzwgSSyY7SnHsEA0Em-3">
          <mxGeometry width="50" height="50" relative="1" as="geometry">
            <mxPoint x="490" y="440" as="sourcePoint" />
            <mxPoint x="490" y="300" as="targetPoint" />
          </mxGeometry>
        </mxCell>
        <mxCell id="-cBxk7fLiJrXRpnCx0br-9" value="" style="endArrow=none;html=1;rounded=0;strokeWidth=3;strokeColor=#0066CC;" edge="1" parent="1" source="XlkFAfoqpxD81n8Z_oae-22" target="XlkFAfoqpxD81n8Z_oae-21">
          <mxGeometry width="50" height="50" relative="1" as="geometry">
            <mxPoint x="500" y="430" as="sourcePoint" />
            <mxPoint x="500" y="290" as="targetPoint" />
          </mxGeometry>
        </mxCell>
        <mxCell id="-cBxk7fLiJrXRpnCx0br-10" value="" style="endArrow=none;html=1;rounded=0;strokeWidth=3;strokeColor=#0066CC;" edge="1" parent="1" source="XlkFAfoqpxD81n8Z_oae-24" target="XlkFAfoqpxD81n8Z_oae-23">
          <mxGeometry width="50" height="50" relative="1" as="geometry">
            <mxPoint x="690" y="510" as="sourcePoint" />
            <mxPoint x="690" y="370" as="targetPoint" />
          </mxGeometry>
        </mxCell>
        <mxCell id="-cBxk7fLiJrXRpnCx0br-11" value="" style="endArrow=none;html=1;rounded=0;strokeWidth=2;edgeStyle=orthogonalEdgeStyle;" edge="1" parent="1" source="hTBzwgSSyY7SnHsEA0Em-6" target="hTBzwgSSyY7SnHsEA0Em-20">
          <mxGeometry width="50" height="50" relative="1" as="geometry">
            <mxPoint x="720" y="480" as="sourcePoint" />
            <mxPoint x="720" y="340" as="targetPoint" />
            <Array as="points">
              <mxPoint x="800" y="640" />
              <mxPoint x="100" y="640" />
            </Array>
          </mxGeometry>
        </mxCell>
        <mxCell id="-cBxk7fLiJrXRpnCx0br-12" value="" style="endArrow=none;html=1;rounded=0;strokeWidth=3;strokeColor=#0066CC;" edge="1" parent="1" source="hTBzwgSSyY7SnHsEA0Em-22" target="hTBzwgSSyY7SnHsEA0Em-21">
          <mxGeometry width="50" height="50" relative="1" as="geometry">
            <mxPoint x="900" y="480" as="sourcePoint" />
            <mxPoint x="900" y="340" as="targetPoint" />
          </mxGeometry>
        </mxCell>
        <mxCell id="-cBxk7fLiJrXRpnCx0br-13" value="" style="endArrow=none;html=1;rounded=0;strokeWidth=2;" edge="1" parent="1" source="XlkFAfoqpxD81n8Z_oae-27" target="XlkFAfoqpxD81n8Z_oae-25">
          <mxGeometry width="50" height="50" relative="1" as="geometry">
            <mxPoint x="910" y="450" as="sourcePoint" />
            <mxPoint x="910" y="310" as="targetPoint" />
          </mxGeometry>
        </mxCell>
        <mxCell id="-cBxk7fLiJrXRpnCx0br-14" value="" style="endArrow=none;html=1;rounded=0;strokeWidth=2;" edge="1" parent="1" source="XlkFAfoqpxD81n8Z_oae-26" target="XlkFAfoqpxD81n8Z_oae-28">
          <mxGeometry width="50" height="50" relative="1" as="geometry">
            <mxPoint x="920" y="560" as="sourcePoint" />
            <mxPoint x="920" y="420" as="targetPoint" />
          </mxGeometry>
        </mxCell>
        <mxCell id="-cBxk7fLiJrXRpnCx0br-15" value="" style="endArrow=none;html=1;rounded=0;strokeWidth=2;edgeStyle=orthogonalEdgeStyle;" edge="1" parent="1" source="hTBzwgSSyY7SnHsEA0Em-5" target="hTBzwgSSyY7SnHsEA0Em-19">
          <mxGeometry width="50" height="50" relative="1" as="geometry">
            <mxPoint x="440" y="210" as="sourcePoint" />
            <mxPoint x="100" y="380" as="targetPoint" />
            <Array as="points">
              <mxPoint x="800" y="160" />
              <mxPoint x="100" y="160" />
            </Array>
          </mxGeometry>
        </mxCell>
        <mxCell id="-cBxk7fLiJrXRpnCx0br-16" value="" style="endArrow=none;html=1;rounded=0;strokeWidth=2;edgeStyle=orthogonalEdgeStyle;" edge="1" parent="1" source="hTBzwgSSyY7SnHsEA0Em-18" target="XlkFAfoqpxD81n8Z_oae-30">
          <mxGeometry width="50" height="50" relative="1" as="geometry">
            <mxPoint x="560" y="180" as="sourcePoint" />
            <mxPoint x="570" y="380" as="targetPoint" />
            <Array as="points">
              <mxPoint x="1040" y="120" />
              <mxPoint x="60" y="120" />
            </Array>
          </mxGeometry>
        </mxCell>
        <mxCell id="-cBxk7fLiJrXRpnCx0br-17" value="" style="endArrow=none;html=1;rounded=0;strokeWidth=2;edgeStyle=orthogonalEdgeStyle;" edge="1" parent="1" source="XlkFAfoqpxD81n8Z_oae-4" target="XlkFAfoqpxD81n8Z_oae-29">
          <mxGeometry width="50" height="50" relative="1" as="geometry">
            <mxPoint x="580" y="530" as="sourcePoint" />
            <mxPoint x="580" y="390" as="targetPoint" />
            <Array as="points">
              <mxPoint x="1040" y="680" />
              <mxPoint x="60" y="680" />
            </Array>
          </mxGeometry>
        </mxCell>
        <mxCell id="-cBxk7fLiJrXRpnCx0br-18" value="" style="endArrow=none;html=1;rounded=0;strokeWidth=5;strokeColor=#004C99;" edge="1" parent="1" source="XlkFAfoqpxD81n8Z_oae-20" target="XlkFAfoqpxD81n8Z_oae-19">
          <mxGeometry width="50" height="50" relative="1" as="geometry">
            <mxPoint x="590" y="560" as="sourcePoint" />
            <mxPoint x="590" y="420" as="targetPoint" />
          </mxGeometry>
        </mxCell>
        <mxCell id="WUiQoT11VEsdVO_QjTTb-1" value="10.0.0.1" style="rounded=0;whiteSpace=wrap;html=1;strokeColor=none;fillColor=none;labelBackgroundColor=default;fontStyle=0" vertex="1" parent="1">
          <mxGeometry x="40" y="290" width="80" height="20" as="geometry" />
        </mxCell>
        <mxCell id="WUiQoT11VEsdVO_QjTTb-2" value="10.0.0.2" style="rounded=0;whiteSpace=wrap;html=1;strokeColor=none;fillColor=none;labelBackgroundColor=default;fontStyle=0" vertex="1" parent="1">
          <mxGeometry x="280" y="290" width="80" height="20" as="geometry" />
        </mxCell>
        <mxCell id="WUiQoT11VEsdVO_QjTTb-3" value="10.0.0.3" style="rounded=0;whiteSpace=wrap;html=1;strokeColor=none;fillColor=none;labelBackgroundColor=default;fontStyle=0" vertex="1" parent="1">
          <mxGeometry x="520" y="290" width="80" height="20" as="geometry" />
        </mxCell>
        <mxCell id="WUiQoT11VEsdVO_QjTTb-4" value="10.0.0.4" style="rounded=0;whiteSpace=wrap;html=1;strokeColor=none;fillColor=none;labelBackgroundColor=default;fontStyle=0" vertex="1" parent="1">
          <mxGeometry x="760" y="290" width="80" height="20" as="geometry" />
        </mxCell>
        <mxCell id="WUiQoT11VEsdVO_QjTTb-5" value="10.0.0.9" style="rounded=0;whiteSpace=wrap;html=1;strokeColor=none;fillColor=none;labelBackgroundColor=default;fontStyle=0" vertex="1" parent="1">
          <mxGeometry x="40" y="530" width="80" height="20" as="geometry" />
        </mxCell>
        <mxCell id="WUiQoT11VEsdVO_QjTTb-6" value="10.0.0.8" style="rounded=0;whiteSpace=wrap;html=1;strokeColor=none;fillColor=none;labelBackgroundColor=default;fontStyle=0" vertex="1" parent="1">
          <mxGeometry x="280" y="530" width="80" height="20" as="geometry" />
        </mxCell>
        <mxCell id="WUiQoT11VEsdVO_QjTTb-7" value="10.0.0.7" style="rounded=0;whiteSpace=wrap;html=1;strokeColor=none;fillColor=none;labelBackgroundColor=default;fontStyle=0" vertex="1" parent="1">
          <mxGeometry x="520" y="530" width="80" height="20" as="geometry" />
        </mxCell>
        <mxCell id="WUiQoT11VEsdVO_QjTTb-8" value="10.0.0.6" style="rounded=0;whiteSpace=wrap;html=1;strokeColor=none;fillColor=none;labelBackgroundColor=default;fontStyle=0" vertex="1" parent="1">
          <mxGeometry x="760" y="530" width="80" height="20" as="geometry" />
        </mxCell>
        <mxCell id="WUiQoT11VEsdVO_QjTTb-9" value="10.0.0.5" style="rounded=0;whiteSpace=wrap;html=1;strokeColor=none;fillColor=none;labelBackgroundColor=default;fontStyle=0" vertex="1" parent="1">
          <mxGeometry x="1000" y="410" width="80" height="20" as="geometry" />
        </mxCell>
      </root>
    </mxGraphModel>
  </diagram>
  <diagram id="u3efnkHGaRXb5fe7L6AK" name="Page-3">
    <mxGraphModel dx="1242" dy="817" grid="1" gridSize="10" guides="1" tooltips="1" connect="1" arrows="1" fold="1" page="1" pageScale="1" pageWidth="1100" pageHeight="850" math="0" shadow="0">
      <root>
        <mxCell id="0" />
        <mxCell id="1" parent="0" />
        <mxCell id="ph8_u4nFXmJngYSQQ6gG-1" value="PE11" style="rounded=1;whiteSpace=wrap;html=1;strokeWidth=5;fontFamily=Helvetica;fontSize=20;perimeterSpacing=1;fillColor=#D4E1F5;" parent="1" vertex="1">
          <mxGeometry x="40" y="240" width="80" height="80" as="geometry" />
        </mxCell>
        <mxCell id="ph8_u4nFXmJngYSQQ6gG-2" value="0" style="ellipse;whiteSpace=wrap;html=1;aspect=fixed;" parent="1" vertex="1">
          <mxGeometry x="110" y="250" width="20" height="20" as="geometry" />
        </mxCell>
        <mxCell id="ph8_u4nFXmJngYSQQ6gG-3" value="PE12" style="rounded=1;whiteSpace=wrap;html=1;strokeWidth=5;fontFamily=Helvetica;fontSize=20;perimeterSpacing=1;fillColor=#D4E1F5;" parent="1" vertex="1">
          <mxGeometry x="40" y="480" width="80" height="80" as="geometry" />
        </mxCell>
        <mxCell id="ph8_u4nFXmJngYSQQ6gG-4" value="BB11" style="rounded=1;whiteSpace=wrap;html=1;strokeWidth=5;fontFamily=Helvetica;fontSize=20;perimeterSpacing=1;fillColor=#D4E1F5;" parent="1" vertex="1">
          <mxGeometry x="280" y="240" width="80" height="80" as="geometry" />
        </mxCell>
        <mxCell id="ph8_u4nFXmJngYSQQ6gG-5" value="BB12" style="rounded=1;whiteSpace=wrap;html=1;strokeWidth=5;fontFamily=Helvetica;fontSize=20;perimeterSpacing=1;fillColor=#D4E1F5;" parent="1" vertex="1">
          <mxGeometry x="280" y="480" width="80" height="80" as="geometry" />
        </mxCell>
        <mxCell id="ph8_u4nFXmJngYSQQ6gG-6" value="BB21" style="rounded=1;whiteSpace=wrap;html=1;strokeWidth=5;fontFamily=Helvetica;fontSize=20;perimeterSpacing=1;fillColor=#D4E1F5;" parent="1" vertex="1">
          <mxGeometry x="520" y="240" width="80" height="80" as="geometry" />
        </mxCell>
        <mxCell id="ph8_u4nFXmJngYSQQ6gG-7" value="BB22" style="rounded=1;whiteSpace=wrap;html=1;strokeWidth=5;fontFamily=Helvetica;fontSize=20;perimeterSpacing=1;fillColor=#D4E1F5;" parent="1" vertex="1">
          <mxGeometry x="520" y="480" width="80" height="80" as="geometry" />
        </mxCell>
        <mxCell id="ph8_u4nFXmJngYSQQ6gG-8" value="PE21" style="rounded=1;whiteSpace=wrap;html=1;strokeWidth=5;fontFamily=Helvetica;fontSize=20;perimeterSpacing=1;fillColor=#D4E1F5;" parent="1" vertex="1">
          <mxGeometry x="760" y="240" width="80" height="80" as="geometry" />
        </mxCell>
        <mxCell id="ph8_u4nFXmJngYSQQ6gG-9" value="PE22" style="rounded=1;whiteSpace=wrap;html=1;strokeWidth=5;fontFamily=Helvetica;fontSize=20;perimeterSpacing=1;fillColor=#D4E1F5;" parent="1" vertex="1">
          <mxGeometry x="760" y="480" width="80" height="80" as="geometry" />
        </mxCell>
        <mxCell id="ph8_u4nFXmJngYSQQ6gG-10" value="CE" style="rounded=1;whiteSpace=wrap;html=1;strokeWidth=5;fontFamily=Helvetica;fontSize=20;perimeterSpacing=1;fillColor=#D4E1F5;" parent="1" vertex="1">
          <mxGeometry x="1000" y="360" width="80" height="80" as="geometry" />
        </mxCell>
        <mxCell id="ph8_u4nFXmJngYSQQ6gG-11" value="2" style="ellipse;whiteSpace=wrap;html=1;aspect=fixed;" parent="1" vertex="1">
          <mxGeometry x="270" y="250" width="20" height="20" as="geometry" />
        </mxCell>
        <mxCell id="ph8_u4nFXmJngYSQQ6gG-12" value="1" style="ellipse;whiteSpace=wrap;html=1;aspect=fixed;" parent="1" vertex="1">
          <mxGeometry x="110" y="530" width="20" height="20" as="geometry" />
        </mxCell>
        <mxCell id="ph8_u4nFXmJngYSQQ6gG-13" value="3" style="ellipse;whiteSpace=wrap;html=1;aspect=fixed;" parent="1" vertex="1">
          <mxGeometry x="270" y="530" width="20" height="20" as="geometry" />
        </mxCell>
        <mxCell id="ph8_u4nFXmJngYSQQ6gG-14" value="0" style="ellipse;whiteSpace=wrap;html=1;aspect=fixed;" parent="1" vertex="1">
          <mxGeometry x="350" y="250" width="20" height="20" as="geometry" />
        </mxCell>
        <mxCell id="ph8_u4nFXmJngYSQQ6gG-15" value="0" style="ellipse;whiteSpace=wrap;html=1;aspect=fixed;" parent="1" vertex="1">
          <mxGeometry x="510" y="250" width="20" height="20" as="geometry" />
        </mxCell>
        <mxCell id="ph8_u4nFXmJngYSQQ6gG-16" value="0" style="ellipse;whiteSpace=wrap;html=1;aspect=fixed;" parent="1" vertex="1">
          <mxGeometry x="350" y="530" width="20" height="20" as="geometry" />
        </mxCell>
        <mxCell id="ph8_u4nFXmJngYSQQ6gG-17" value="0" style="ellipse;whiteSpace=wrap;html=1;aspect=fixed;" parent="1" vertex="1">
          <mxGeometry x="510" y="530" width="20" height="20" as="geometry" />
        </mxCell>
        <mxCell id="ph8_u4nFXmJngYSQQ6gG-18" value="3" style="ellipse;whiteSpace=wrap;html=1;aspect=fixed;" parent="1" vertex="1">
          <mxGeometry x="590" y="250" width="20" height="20" as="geometry" />
        </mxCell>
        <mxCell id="ph8_u4nFXmJngYSQQ6gG-19" value="0" style="ellipse;whiteSpace=wrap;html=1;aspect=fixed;" parent="1" vertex="1">
          <mxGeometry x="750" y="250" width="20" height="20" as="geometry" />
        </mxCell>
        <mxCell id="ph8_u4nFXmJngYSQQ6gG-20" value="3" style="ellipse;whiteSpace=wrap;html=1;aspect=fixed;" parent="1" vertex="1">
          <mxGeometry x="590" y="530" width="20" height="20" as="geometry" />
        </mxCell>
        <mxCell id="ph8_u4nFXmJngYSQQ6gG-21" value="0" style="ellipse;whiteSpace=wrap;html=1;aspect=fixed;" parent="1" vertex="1">
          <mxGeometry x="750" y="530" width="20" height="20" as="geometry" />
        </mxCell>
        <mxCell id="ph8_u4nFXmJngYSQQ6gG-22" value="2" style="ellipse;whiteSpace=wrap;html=1;aspect=fixed;" parent="1" vertex="1">
          <mxGeometry x="830" y="270" width="20" height="20" as="geometry" />
        </mxCell>
        <mxCell id="ph8_u4nFXmJngYSQQ6gG-23" value="2" style="ellipse;whiteSpace=wrap;html=1;aspect=fixed;" parent="1" vertex="1">
          <mxGeometry x="830" y="510" width="20" height="20" as="geometry" />
        </mxCell>
        <mxCell id="ph8_u4nFXmJngYSQQ6gG-24" value="2" style="ellipse;whiteSpace=wrap;html=1;aspect=fixed;" parent="1" vertex="1">
          <mxGeometry x="990" y="370" width="20" height="20" as="geometry" />
        </mxCell>
        <mxCell id="ph8_u4nFXmJngYSQQ6gG-25" value="3" style="ellipse;whiteSpace=wrap;html=1;aspect=fixed;" parent="1" vertex="1">
          <mxGeometry x="990" y="410" width="20" height="20" as="geometry" />
        </mxCell>
        <mxCell id="ph8_u4nFXmJngYSQQ6gG-26" value="2" style="ellipse;whiteSpace=wrap;html=1;aspect=fixed;" parent="1" vertex="1">
          <mxGeometry x="50" y="550" width="20" height="20" as="geometry" />
        </mxCell>
        <mxCell id="ph8_u4nFXmJngYSQQ6gG-27" value="2" style="ellipse;whiteSpace=wrap;html=1;aspect=fixed;" parent="1" vertex="1">
          <mxGeometry x="50" y="230" width="20" height="20" as="geometry" />
        </mxCell>
        <mxCell id="ph8_u4nFXmJngYSQQ6gG-28" value="1" style="ellipse;whiteSpace=wrap;html=1;aspect=fixed;" parent="1" vertex="1">
          <mxGeometry x="350" y="290" width="20" height="20" as="geometry" />
        </mxCell>
        <mxCell id="ph8_u4nFXmJngYSQQ6gG-29" value="1" style="ellipse;whiteSpace=wrap;html=1;aspect=fixed;" parent="1" vertex="1">
          <mxGeometry x="350" y="490" width="20" height="20" as="geometry" />
        </mxCell>
        <mxCell id="ph8_u4nFXmJngYSQQ6gG-30" value="2" style="ellipse;whiteSpace=wrap;html=1;aspect=fixed;" parent="1" vertex="1">
          <mxGeometry x="550" y="310" width="20" height="20" as="geometry" />
        </mxCell>
        <mxCell id="ph8_u4nFXmJngYSQQ6gG-31" value="2" style="ellipse;whiteSpace=wrap;html=1;aspect=fixed;" parent="1" vertex="1">
          <mxGeometry x="550" y="470" width="20" height="20" as="geometry" />
        </mxCell>
        <mxCell id="ph8_u4nFXmJngYSQQ6gG-32" value="3" style="ellipse;whiteSpace=wrap;html=1;aspect=fixed;" parent="1" vertex="1">
          <mxGeometry x="790" y="230" width="20" height="20" as="geometry" />
        </mxCell>
        <mxCell id="ph8_u4nFXmJngYSQQ6gG-33" value="3" style="ellipse;whiteSpace=wrap;html=1;aspect=fixed;" parent="1" vertex="1">
          <mxGeometry x="790" y="550" width="20" height="20" as="geometry" />
        </mxCell>
        <mxCell id="ph8_u4nFXmJngYSQQ6gG-34" value="1" style="ellipse;whiteSpace=wrap;html=1;aspect=fixed;" parent="1" vertex="1">
          <mxGeometry x="110" y="290" width="20" height="20" as="geometry" />
        </mxCell>
        <mxCell id="ph8_u4nFXmJngYSQQ6gG-35" value="0" style="ellipse;whiteSpace=wrap;html=1;aspect=fixed;" parent="1" vertex="1">
          <mxGeometry x="110" y="490" width="20" height="20" as="geometry" />
        </mxCell>
        <mxCell id="ph8_u4nFXmJngYSQQ6gG-36" value="3" style="ellipse;whiteSpace=wrap;html=1;aspect=fixed;" parent="1" vertex="1">
          <mxGeometry x="270" y="290" width="20" height="20" as="geometry" />
        </mxCell>
        <mxCell id="ph8_u4nFXmJngYSQQ6gG-37" value="2" style="ellipse;whiteSpace=wrap;html=1;aspect=fixed;" parent="1" vertex="1">
          <mxGeometry x="270" y="490" width="20" height="20" as="geometry" />
        </mxCell>
        <mxCell id="ph8_u4nFXmJngYSQQ6gG-38" value="1" style="ellipse;whiteSpace=wrap;html=1;aspect=fixed;" parent="1" vertex="1">
          <mxGeometry x="510" y="290" width="20" height="20" as="geometry" />
        </mxCell>
        <mxCell id="ph8_u4nFXmJngYSQQ6gG-39" value="1" style="ellipse;whiteSpace=wrap;html=1;aspect=fixed;" parent="1" vertex="1">
          <mxGeometry x="510" y="490" width="20" height="20" as="geometry" />
        </mxCell>
        <mxCell id="ph8_u4nFXmJngYSQQ6gG-40" value="1" style="ellipse;whiteSpace=wrap;html=1;aspect=fixed;" parent="1" vertex="1">
          <mxGeometry x="1030" y="430" width="20" height="20" as="geometry" />
        </mxCell>
        <mxCell id="ph8_u4nFXmJngYSQQ6gG-41" value="0" style="ellipse;whiteSpace=wrap;html=1;aspect=fixed;" parent="1" vertex="1">
          <mxGeometry x="1030" y="350" width="20" height="20" as="geometry" />
        </mxCell>
        <mxCell id="ph8_u4nFXmJngYSQQ6gG-42" value="3" style="ellipse;whiteSpace=wrap;html=1;aspect=fixed;" parent="1" vertex="1">
          <mxGeometry x="90" y="230" width="20" height="20" as="geometry" />
        </mxCell>
        <mxCell id="ph8_u4nFXmJngYSQQ6gG-43" value="3" style="ellipse;whiteSpace=wrap;html=1;aspect=fixed;" parent="1" vertex="1">
          <mxGeometry x="90" y="550" width="20" height="20" as="geometry" />
        </mxCell>
        <mxCell id="ph8_u4nFXmJngYSQQ6gG-44" value="1" style="ellipse;whiteSpace=wrap;html=1;aspect=fixed;" parent="1" vertex="1">
          <mxGeometry x="790" y="310" width="20" height="20" as="geometry" />
        </mxCell>
        <mxCell id="ph8_u4nFXmJngYSQQ6gG-45" value="1" style="ellipse;whiteSpace=wrap;html=1;aspect=fixed;" parent="1" vertex="1">
          <mxGeometry x="790" y="470" width="20" height="20" as="geometry" />
        </mxCell>
        <mxCell id="ph8_u4nFXmJngYSQQ6gG-46" value="" style="endArrow=none;html=1;rounded=0;strokeWidth=3;strokeColor=#0066CC;" parent="1" source="ph8_u4nFXmJngYSQQ6gG-37" target="ph8_u4nFXmJngYSQQ6gG-34" edge="1">
          <mxGeometry width="50" height="50" relative="1" as="geometry">
            <mxPoint x="420" y="370" as="sourcePoint" />
            <mxPoint x="420" y="230" as="targetPoint" />
          </mxGeometry>
        </mxCell>
        <mxCell id="ph8_u4nFXmJngYSQQ6gG-47" value="" style="endArrow=none;html=1;rounded=0;strokeWidth=3;strokeColor=#0066CC;" parent="1" source="ph8_u4nFXmJngYSQQ6gG-11" target="ph8_u4nFXmJngYSQQ6gG-2" edge="1">
          <mxGeometry width="50" height="50" relative="1" as="geometry">
            <mxPoint x="180" y="200" as="sourcePoint" />
            <mxPoint x="430" y="220" as="targetPoint" />
          </mxGeometry>
        </mxCell>
        <mxCell id="ph8_u4nFXmJngYSQQ6gG-48" value="" style="endArrow=none;html=1;rounded=0;strokeWidth=3;strokeColor=#0066CC;" parent="1" source="ph8_u4nFXmJngYSQQ6gG-36" target="ph8_u4nFXmJngYSQQ6gG-35" edge="1">
          <mxGeometry width="50" height="50" relative="1" as="geometry">
            <mxPoint x="270" y="390" as="sourcePoint" />
            <mxPoint x="200" y="430" as="targetPoint" />
          </mxGeometry>
        </mxCell>
        <mxCell id="ph8_u4nFXmJngYSQQ6gG-49" value="" style="endArrow=none;html=1;rounded=0;strokeWidth=3;strokeColor=#0066CC;" parent="1" source="ph8_u4nFXmJngYSQQ6gG-12" target="ph8_u4nFXmJngYSQQ6gG-13" edge="1">
          <mxGeometry width="50" height="50" relative="1" as="geometry">
            <mxPoint x="450" y="420" as="sourcePoint" />
            <mxPoint x="450" y="280" as="targetPoint" />
          </mxGeometry>
        </mxCell>
        <mxCell id="ph8_u4nFXmJngYSQQ6gG-50" value="" style="endArrow=none;html=1;rounded=0;strokeWidth=5;strokeColor=#004C99;" parent="1" source="ph8_u4nFXmJngYSQQ6gG-15" target="ph8_u4nFXmJngYSQQ6gG-14" edge="1">
          <mxGeometry width="50" height="50" relative="1" as="geometry">
            <mxPoint x="460" y="390" as="sourcePoint" />
            <mxPoint x="460" y="250" as="targetPoint" />
          </mxGeometry>
        </mxCell>
        <mxCell id="ph8_u4nFXmJngYSQQ6gG-51" value="" style="endArrow=none;html=1;rounded=0;strokeWidth=5;strokeColor=#004C99;" parent="1" source="ph8_u4nFXmJngYSQQ6gG-39" target="ph8_u4nFXmJngYSQQ6gG-28" edge="1">
          <mxGeometry width="50" height="50" relative="1" as="geometry">
            <mxPoint x="470" y="420" as="sourcePoint" />
            <mxPoint x="470" y="280" as="targetPoint" />
          </mxGeometry>
        </mxCell>
        <mxCell id="ph8_u4nFXmJngYSQQ6gG-52" value="" style="endArrow=none;html=1;rounded=0;strokeWidth=5;strokeColor=#004C99;" parent="1" source="ph8_u4nFXmJngYSQQ6gG-29" target="ph8_u4nFXmJngYSQQ6gG-38" edge="1">
          <mxGeometry width="50" height="50" relative="1" as="geometry">
            <mxPoint x="480" y="430" as="sourcePoint" />
            <mxPoint x="480" y="290" as="targetPoint" />
          </mxGeometry>
        </mxCell>
        <mxCell id="ph8_u4nFXmJngYSQQ6gG-53" value="" style="endArrow=none;html=1;rounded=0;strokeWidth=5;strokeColor=#004C99;" parent="1" source="ph8_u4nFXmJngYSQQ6gG-31" target="ph8_u4nFXmJngYSQQ6gG-30" edge="1">
          <mxGeometry width="50" height="50" relative="1" as="geometry">
            <mxPoint x="490" y="440" as="sourcePoint" />
            <mxPoint x="490" y="300" as="targetPoint" />
          </mxGeometry>
        </mxCell>
        <mxCell id="ph8_u4nFXmJngYSQQ6gG-54" value="" style="endArrow=none;html=1;rounded=0;strokeWidth=3;strokeColor=#0066CC;" parent="1" source="ph8_u4nFXmJngYSQQ6gG-19" target="ph8_u4nFXmJngYSQQ6gG-18" edge="1">
          <mxGeometry width="50" height="50" relative="1" as="geometry">
            <mxPoint x="500" y="430" as="sourcePoint" />
            <mxPoint x="500" y="290" as="targetPoint" />
          </mxGeometry>
        </mxCell>
        <mxCell id="ph8_u4nFXmJngYSQQ6gG-55" value="" style="endArrow=none;html=1;rounded=0;strokeWidth=3;strokeColor=#0066CC;" parent="1" source="ph8_u4nFXmJngYSQQ6gG-21" target="ph8_u4nFXmJngYSQQ6gG-20" edge="1">
          <mxGeometry width="50" height="50" relative="1" as="geometry">
            <mxPoint x="690" y="510" as="sourcePoint" />
            <mxPoint x="690" y="370" as="targetPoint" />
          </mxGeometry>
        </mxCell>
        <mxCell id="ph8_u4nFXmJngYSQQ6gG-56" value="" style="endArrow=none;html=1;rounded=0;strokeWidth=2;edgeStyle=orthogonalEdgeStyle;" parent="1" source="ph8_u4nFXmJngYSQQ6gG-33" target="ph8_u4nFXmJngYSQQ6gG-43" edge="1">
          <mxGeometry width="50" height="50" relative="1" as="geometry">
            <mxPoint x="720" y="480" as="sourcePoint" />
            <mxPoint x="720" y="340" as="targetPoint" />
            <Array as="points">
              <mxPoint x="800" y="640" />
              <mxPoint x="100" y="640" />
            </Array>
          </mxGeometry>
        </mxCell>
        <mxCell id="ph8_u4nFXmJngYSQQ6gG-57" value="" style="endArrow=none;html=1;rounded=0;strokeWidth=3;strokeColor=#0066CC;" parent="1" source="ph8_u4nFXmJngYSQQ6gG-45" target="ph8_u4nFXmJngYSQQ6gG-44" edge="1">
          <mxGeometry width="50" height="50" relative="1" as="geometry">
            <mxPoint x="900" y="480" as="sourcePoint" />
            <mxPoint x="900" y="340" as="targetPoint" />
          </mxGeometry>
        </mxCell>
        <mxCell id="ph8_u4nFXmJngYSQQ6gG-58" value="" style="endArrow=none;html=1;rounded=0;strokeWidth=2;" parent="1" source="ph8_u4nFXmJngYSQQ6gG-24" target="ph8_u4nFXmJngYSQQ6gG-22" edge="1">
          <mxGeometry width="50" height="50" relative="1" as="geometry">
            <mxPoint x="910" y="450" as="sourcePoint" />
            <mxPoint x="910" y="310" as="targetPoint" />
          </mxGeometry>
        </mxCell>
        <mxCell id="ph8_u4nFXmJngYSQQ6gG-59" value="" style="endArrow=none;html=1;rounded=0;strokeWidth=2;" parent="1" source="ph8_u4nFXmJngYSQQ6gG-23" target="ph8_u4nFXmJngYSQQ6gG-25" edge="1">
          <mxGeometry width="50" height="50" relative="1" as="geometry">
            <mxPoint x="920" y="560" as="sourcePoint" />
            <mxPoint x="920" y="420" as="targetPoint" />
          </mxGeometry>
        </mxCell>
        <mxCell id="ph8_u4nFXmJngYSQQ6gG-60" value="" style="endArrow=none;html=1;rounded=0;strokeWidth=2;edgeStyle=orthogonalEdgeStyle;" parent="1" source="ph8_u4nFXmJngYSQQ6gG-32" target="ph8_u4nFXmJngYSQQ6gG-42" edge="1">
          <mxGeometry width="50" height="50" relative="1" as="geometry">
            <mxPoint x="440" y="210" as="sourcePoint" />
            <mxPoint x="100" y="380" as="targetPoint" />
            <Array as="points">
              <mxPoint x="800" y="160" />
              <mxPoint x="100" y="160" />
            </Array>
          </mxGeometry>
        </mxCell>
        <mxCell id="ph8_u4nFXmJngYSQQ6gG-61" value="" style="endArrow=none;html=1;rounded=0;strokeWidth=2;edgeStyle=orthogonalEdgeStyle;" parent="1" source="ph8_u4nFXmJngYSQQ6gG-41" target="ph8_u4nFXmJngYSQQ6gG-27" edge="1">
          <mxGeometry width="50" height="50" relative="1" as="geometry">
            <mxPoint x="560" y="180" as="sourcePoint" />
            <mxPoint x="570" y="380" as="targetPoint" />
            <Array as="points">
              <mxPoint x="1040" y="120" />
              <mxPoint x="60" y="120" />
            </Array>
          </mxGeometry>
        </mxCell>
        <mxCell id="ph8_u4nFXmJngYSQQ6gG-62" value="" style="endArrow=none;html=1;rounded=0;strokeWidth=2;edgeStyle=orthogonalEdgeStyle;" parent="1" source="ph8_u4nFXmJngYSQQ6gG-40" target="ph8_u4nFXmJngYSQQ6gG-26" edge="1">
          <mxGeometry width="50" height="50" relative="1" as="geometry">
            <mxPoint x="580" y="530" as="sourcePoint" />
            <mxPoint x="580" y="390" as="targetPoint" />
            <Array as="points">
              <mxPoint x="1040" y="680" />
              <mxPoint x="60" y="680" />
            </Array>
          </mxGeometry>
        </mxCell>
        <mxCell id="ph8_u4nFXmJngYSQQ6gG-63" value="" style="endArrow=none;html=1;rounded=0;strokeWidth=5;strokeColor=#004C99;" parent="1" source="ph8_u4nFXmJngYSQQ6gG-17" target="ph8_u4nFXmJngYSQQ6gG-16" edge="1">
          <mxGeometry width="50" height="50" relative="1" as="geometry">
            <mxPoint x="590" y="560" as="sourcePoint" />
            <mxPoint x="590" y="420" as="targetPoint" />
          </mxGeometry>
        </mxCell>
        <mxCell id="ph8_u4nFXmJngYSQQ6gG-64" value="10.0.0.11" style="rounded=0;whiteSpace=wrap;html=1;strokeColor=none;fillColor=none;labelBackgroundColor=default;" parent="1" vertex="1">
          <mxGeometry x="280" y="290" width="80" height="20" as="geometry" />
        </mxCell>
        <mxCell id="ph8_u4nFXmJngYSQQ6gG-65" value="10.0.0.21" style="rounded=0;whiteSpace=wrap;html=1;strokeColor=none;fillColor=none;labelBackgroundColor=default;" parent="1" vertex="1">
          <mxGeometry x="520" y="290" width="80" height="20" as="geometry" />
        </mxCell>
        <mxCell id="ph8_u4nFXmJngYSQQ6gG-66" value="10.0.0.12" style="rounded=0;whiteSpace=wrap;html=1;strokeColor=none;fillColor=none;labelBackgroundColor=default;" parent="1" vertex="1">
          <mxGeometry x="280" y="530" width="80" height="20" as="geometry" />
        </mxCell>
        <mxCell id="ph8_u4nFXmJngYSQQ6gG-67" value="10.0.0.22" style="rounded=0;whiteSpace=wrap;html=1;strokeColor=none;fillColor=none;labelBackgroundColor=default;" parent="1" vertex="1">
          <mxGeometry x="520" y="530" width="80" height="20" as="geometry" />
        </mxCell>
        <mxCell id="ph8_u4nFXmJngYSQQ6gG-68" value="10.10.0.11" style="rounded=0;whiteSpace=wrap;html=1;strokeColor=none;fillColor=none;labelBackgroundColor=default;fontStyle=0" parent="1" vertex="1">
          <mxGeometry x="40" y="290" width="80" height="20" as="geometry" />
        </mxCell>
        <mxCell id="ph8_u4nFXmJngYSQQ6gG-69" value="10.10.0.12" style="rounded=0;whiteSpace=wrap;html=1;strokeColor=none;fillColor=none;labelBackgroundColor=default;fontStyle=0" parent="1" vertex="1">
          <mxGeometry x="40" y="530" width="80" height="20" as="geometry" />
        </mxCell>
        <mxCell id="ph8_u4nFXmJngYSQQ6gG-70" value="10.10.0.21" style="rounded=0;whiteSpace=wrap;html=1;strokeColor=none;fillColor=none;labelBackgroundColor=default;fontStyle=0" parent="1" vertex="1">
          <mxGeometry x="760" y="290" width="80" height="20" as="geometry" />
        </mxCell>
        <mxCell id="ph8_u4nFXmJngYSQQ6gG-71" value="10.10.0.22" style="rounded=0;whiteSpace=wrap;html=1;strokeColor=none;fillColor=none;labelBackgroundColor=default;fontStyle=0" parent="1" vertex="1">
          <mxGeometry x="760" y="530" width="80" height="20" as="geometry" />
        </mxCell>
        <mxCell id="ph8_u4nFXmJngYSQQ6gG-72" value="10.10.0.1" style="rounded=0;whiteSpace=wrap;html=1;strokeColor=none;fillColor=none;labelBackgroundColor=default;fontStyle=3" parent="1" vertex="1">
          <mxGeometry x="520" y="250" width="80" height="20" as="geometry" />
        </mxCell>
        <mxCell id="ph8_u4nFXmJngYSQQ6gG-73" value="10.10.0.2" style="rounded=0;whiteSpace=wrap;html=1;strokeColor=none;fillColor=none;labelBackgroundColor=default;fontStyle=3" parent="1" vertex="1">
          <mxGeometry x="520" y="490" width="80" height="20" as="geometry" />
        </mxCell>
        <mxCell id="K_ERMeMElVN-Dzip8iok-1" value="4" style="ellipse;whiteSpace=wrap;html=1;aspect=fixed;" parent="1" vertex="1">
          <mxGeometry x="1070" y="370" width="20" height="20" as="geometry" />
        </mxCell>
        <mxCell id="K_ERMeMElVN-Dzip8iok-2" value="5" style="ellipse;whiteSpace=wrap;html=1;aspect=fixed;" parent="1" vertex="1">
          <mxGeometry x="1070" y="410" width="20" height="20" as="geometry" />
        </mxCell>
      </root>
    </mxGraphModel>
  </diagram>
</mxfile>
